<?xml version="1.0" standalone="no"?>
<!DOCTYPE svg PUBLIC "-//W3C//DTD SVG 20010904//EN"
 "http://www.w3.org/TR/2001/REC-SVG-20010904/DTD/svg10.dtd">
<svg version="1.0" xmlns="http://www.w3.org/2000/svg"
 width="512.000000pt" height="472.000000pt" viewBox="0 0 512.000000 472.000000"
 preserveAspectRatio="xMidYMid meet">

<g transform="translate(0.000000,472.000000) scale(0.100000,-0.100000)"
fill="#000000" stroke="none">
<path d="M2552 4573 c-12 -32 -94 -278 -182 -548 -89 -269 -211 -640 -272
-822 l-110 -333 -940 -2 -940 -3 593 -425 c1013 -727 914 -653 913 -686 -1
-16 -128 -413 -283 -883 -154 -470 -279 -857 -276 -859 2 -2 344 239 759 537
415 298 758 541 762 541 4 0 75 -49 158 -108 1133 -812 1359 -973 1362 -969 2
2 -122 387 -276 855 -154 468 -283 863 -286 879 -6 32 -62 -10 881 668 297
214 560 403 584 422 l44 33 -694 1 c-382 1 -806 5 -944 8 l-249 6 -286 867
c-157 477 -288 869 -291 873 -4 3 -16 -20 -27 -52z"/>
</g>
</svg>
